<svg width="741" height="123" viewBox="0 0 741 123" fill="none" xmlns="http://www.w3.org/2000/svg">
<path d="M82.9129 87.8575L45.6912 86.7915L58.3057 79.9512V63.6945C58.3057 60.0226 57.3581 57.1799 55.463 55.1663C53.5678 53.1527 50.7843 52.1459 47.1125 52.1459C45.5727 52.1459 43.8256 52.3236 41.8713 52.679C39.9761 52.9751 38.3475 53.4785 36.9854 54.1891C36.8077 57.5649 36.63 60.9406 36.4524 64.3163C36.3339 67.6328 36.2155 70.9789 36.097 74.3546L47.379 81.106L10.1573 82.6162L24.4597 74.7099L22.15 15.0131L0.296646 9.23881L39.2062 3.46455L37.3407 46.1052C38.8213 45.6314 40.3315 45.3057 41.8713 45.128C43.4111 44.9503 44.9509 44.8615 46.4907 44.8615H46.846C49.3926 44.8615 52.1465 45.128 55.1076 45.661C58.0688 46.1348 60.793 46.9935 63.2804 48.2372C65.827 49.4217 67.9294 51.0799 69.5877 53.212C71.2459 55.2848 72.0751 57.9202 72.0751 61.1182C72.0751 62.2435 71.9566 63.6352 71.7197 65.2935C71.542 66.9517 71.3051 68.6692 71.009 70.4459C70.7129 72.2226 70.3872 73.94 70.0319 75.5983C69.6765 77.1973 69.3804 78.5298 69.1435 79.5959L82.9129 87.8575Z" fill="#034001"/>
<path d="M138.879 60.0522C138.879 64.1386 137.842 67.6032 135.77 70.4459C133.756 73.2294 131.15 75.5095 127.952 77.2862C124.813 79.0036 121.378 80.2769 117.647 81.106C113.916 81.8759 110.363 82.2609 106.987 82.2609C103.671 82.2609 100.206 81.8463 96.5934 81.0172C93.04 80.1881 89.7531 78.8852 86.7328 77.1085C83.7716 75.3318 81.3139 73.0517 79.3595 70.2682C77.4643 67.4255 76.5168 64.0202 76.5168 60.0522C76.5168 55.7289 77.5532 52.1459 79.626 49.3032C81.6988 46.4605 84.3046 44.2101 87.4434 42.5518C90.6415 40.8936 94.1357 39.7387 97.9259 39.0872C101.775 38.4358 105.477 38.1101 109.03 38.1101C112.288 38.1101 115.663 38.5246 119.157 39.3538C122.711 40.1829 125.938 41.4858 128.84 43.2625C131.802 44.9799 134.2 47.2304 136.036 50.0139C137.931 52.7974 138.879 56.1435 138.879 60.0522ZM124.221 59.8746C124.221 57.7425 123.806 55.7882 122.977 54.0115C122.207 52.2348 121.112 50.695 119.69 49.3921C118.328 48.0892 116.729 47.0824 114.893 46.3717C113.057 45.661 111.103 45.3057 109.03 45.3057C106.898 45.3057 104.766 45.6314 102.634 46.2829C100.502 46.8751 98.5774 47.7634 96.8599 48.9479C95.1424 50.1324 93.7507 51.6425 92.6847 53.4785C91.6187 55.2552 91.0857 57.2984 91.0857 59.6081C91.0857 61.9178 91.441 64.0202 92.1517 65.9153C92.9216 67.8105 93.9876 69.4391 95.3497 70.8012C96.7711 72.1634 98.4293 73.2294 100.324 73.9993C102.22 74.7099 104.322 75.0653 106.632 75.0653C109.119 75.0653 111.429 74.7988 113.561 74.2658C115.693 73.6735 117.558 72.7556 119.157 71.5119C120.756 70.2682 122 68.6988 122.888 66.8037C123.777 64.8493 124.221 62.5396 124.221 59.8746Z" fill="#034001"/>
<path d="M179.654 24.163L178.854 32.5135C175.952 32.2766 173.08 32.0693 170.237 31.8916C167.395 31.6548 164.522 31.3882 161.62 31.0921C161.147 36.7183 160.643 42.3149 160.11 47.8819C159.577 53.4489 159.044 59.0454 158.511 64.6716C158.511 64.9677 158.482 65.2639 158.422 65.56C158.363 65.8561 158.334 66.1522 158.334 66.4483C158.334 67.2775 158.422 68.1362 158.6 69.0245C158.778 69.8537 159.074 70.6236 159.488 71.3342C159.903 71.9857 160.436 72.5483 161.087 73.0221C161.798 73.4366 162.657 73.6439 163.664 73.6439C165.618 73.6439 167.335 73.1998 168.816 72.3114C170.297 71.3638 171.54 70.1794 172.547 68.758C173.554 67.3367 174.353 65.7673 174.946 64.0498C175.538 62.2731 175.923 60.526 176.1 58.8085C176.811 61.592 177.166 64.3459 177.166 67.0702C177.166 69.676 176.752 72.0449 175.923 74.1769C175.094 76.2497 173.939 78.0561 172.458 79.5959C170.978 81.0764 169.201 82.2313 167.128 83.0604C165.055 83.8895 162.775 84.3041 160.288 84.3041C157.682 84.3041 155.402 83.8599 153.448 82.9716C151.493 82.0832 149.865 80.8692 148.562 79.3294C147.318 77.7303 146.37 75.8648 145.719 73.7328C145.127 71.6007 144.831 69.3206 144.831 66.8925C144.831 66.4187 144.831 65.9745 144.831 65.56C144.831 65.1454 144.86 64.7012 144.919 64.2275C145.393 58.4828 145.837 52.827 146.252 47.26C146.726 41.6338 147.14 35.9484 147.496 30.2038C145.897 30.0853 144.298 29.9669 142.699 29.8484C141.159 29.6708 139.589 29.4931 137.99 29.3154L138.346 22.2975C139.589 22.2383 140.892 22.031 142.254 21.6757C143.617 21.3203 144.919 20.8465 146.163 20.2543C147.466 19.6621 148.651 18.9514 149.717 18.1223C150.842 17.2931 151.76 16.3456 152.47 15.2796C153.122 14.2135 153.714 13.0587 154.247 11.815C154.839 10.5713 155.343 9.26842 155.757 7.90628C156.231 6.54415 156.616 5.21163 156.912 3.90873C157.208 2.54659 157.416 1.24369 157.534 0L164.818 0.17767L162.509 22.3863L179.654 24.163Z" fill="#034001"/>
<path d="M239.706 60.0522C239.706 64.1386 238.67 67.6032 236.597 70.4459C234.583 73.2294 231.977 75.5095 228.779 77.2862C225.641 79.0036 222.206 80.2769 218.475 81.106C214.744 81.8759 211.19 82.2609 207.814 82.2609C204.498 82.2609 201.033 81.8463 197.421 81.0172C193.867 80.1881 190.581 78.8852 187.56 77.1085C184.599 75.3318 182.141 73.0517 180.187 70.2682C178.292 67.4255 177.344 64.0202 177.344 60.0522C177.344 55.7289 178.381 52.1459 180.453 49.3032C182.526 46.4605 185.132 44.2101 188.271 42.5518C191.469 40.8936 194.963 39.7387 198.753 39.0872C202.603 38.4358 206.304 38.1101 209.858 38.1101C213.115 38.1101 216.491 38.5246 219.985 39.3538C223.538 40.1829 226.766 41.4858 229.668 43.2625C232.629 44.9799 235.027 47.2304 236.863 50.0139C238.758 52.7974 239.706 56.1435 239.706 60.0522ZM225.048 59.8746C225.048 57.7425 224.634 55.7882 223.805 54.0115C223.035 52.2348 221.939 50.695 220.518 49.3921C219.156 48.0892 217.557 47.0824 215.721 46.3717C213.885 45.661 211.93 45.3057 209.858 45.3057C207.726 45.3057 205.594 45.6314 203.462 46.2829C201.329 46.8751 199.405 47.7634 197.687 48.9479C195.97 50.1324 194.578 51.6425 193.512 53.4785C192.446 55.2552 191.913 57.2984 191.913 59.6081C191.913 61.9178 192.268 64.0202 192.979 65.9153C193.749 67.8105 194.815 69.4391 196.177 70.8012C197.598 72.1634 199.257 73.2294 201.152 73.9993C203.047 74.7099 205.149 75.0653 207.459 75.0653C209.946 75.0653 212.256 74.7988 214.388 74.2658C216.52 73.6735 218.386 72.7556 219.985 71.5119C221.584 70.2682 222.827 68.6988 223.716 66.8037C224.604 64.8493 225.048 62.5396 225.048 59.8746Z" fill="#034001"/>
<path d="M288.21 66.5372C288.21 69.4983 287.529 71.9265 286.167 73.8216C284.804 75.7167 283.087 77.2269 281.014 78.3522C278.941 79.4182 276.632 80.1881 274.085 80.6619C271.538 81.0764 269.081 81.2837 266.712 81.2837C265.35 81.2837 263.839 81.1949 262.181 81.0172C260.582 80.7803 258.983 80.4546 257.384 80.04C255.785 79.6255 254.216 79.1221 252.676 78.5298C251.195 77.9376 249.863 77.2269 248.678 76.3978L241.483 84.8371L244.237 57.6537C245.243 59.8449 246.517 61.9178 248.057 63.8721C249.656 65.8265 251.462 67.544 253.475 69.0245C255.489 70.5051 257.651 71.6896 259.96 72.5779C262.27 73.407 264.669 73.8216 267.156 73.8216C267.807 73.8216 268.548 73.792 269.377 73.7328C270.265 73.6143 271.094 73.407 271.864 73.1109C272.693 72.8148 273.374 72.4002 273.907 71.8672C274.44 71.3342 274.707 70.6236 274.707 69.7352C274.707 68.7284 274.174 67.8105 273.108 66.9813C272.042 66.093 270.798 65.3527 269.377 64.7605C267.955 64.109 266.534 63.576 265.113 63.1614C263.691 62.6877 262.625 62.3323 261.915 62.0954C259.901 61.5032 257.68 60.7037 255.252 59.6969C252.883 58.6309 250.662 57.3872 248.59 55.9658C246.576 54.4853 244.888 52.7678 243.526 50.8134C242.164 48.7998 241.483 46.4901 241.483 43.8843C241.483 41.397 242.075 39.1761 243.259 37.2217C244.503 35.2674 246.073 33.6387 247.968 32.3358C249.863 30.9737 251.965 29.9669 254.275 29.3154C256.644 28.6048 258.954 28.2494 261.204 28.2494C264.757 28.2494 268.104 28.9009 271.242 30.2038C274.44 31.4475 277.342 33.2538 279.948 35.6227L285.456 24.9625L284.301 53.0343C283.235 51.0207 281.903 49.0071 280.304 46.9935C278.704 44.9207 276.928 43.0552 274.973 41.3969C273.019 39.7387 270.917 38.4062 268.666 37.3994C266.416 36.3926 264.076 35.8892 261.648 35.8892C260.938 35.8892 260.108 35.978 259.161 36.1557C258.273 36.2742 257.414 36.511 256.585 36.8664C255.815 37.2217 255.134 37.7251 254.541 38.3766C254.008 38.9688 253.742 39.7387 253.742 40.6863C253.742 41.8115 254.156 42.7887 254.986 43.6178C255.874 44.4469 256.91 45.1872 258.095 45.8387C259.339 46.4309 260.582 46.9639 261.826 47.4377C263.129 47.8523 264.195 48.178 265.024 48.4149C267.156 49.1256 269.555 49.9547 272.22 50.9023C274.885 51.8498 277.402 53.0047 279.77 54.3668C282.139 55.7289 284.123 57.4168 285.722 59.4304C287.381 61.3848 288.21 63.7537 288.21 66.5372Z" fill="#034001"/>
<path d="M345.064 39.6203L342.843 92.5657C342.665 97.0074 341.955 101.064 340.711 104.736C339.467 108.408 337.661 111.547 335.292 114.153C332.982 116.818 330.051 118.861 326.498 120.282C323.003 121.703 318.917 122.414 314.238 122.414C311.633 122.414 308.997 122.029 306.332 121.259C303.667 120.489 301.239 119.335 299.048 117.795C296.916 116.314 295.169 114.478 293.806 112.287C292.444 110.096 291.763 107.549 291.763 104.647C291.763 102.397 292.474 100.531 293.895 99.0506C295.317 97.6293 297.152 96.9186 299.403 96.9186C301.298 96.9186 302.897 97.6293 304.2 99.0506C305.503 100.472 306.154 102.101 306.154 103.937C306.154 105.121 305.769 106.217 305 107.223C304.289 108.23 303.43 108.971 302.423 109.444C303.726 111.162 305.414 112.465 307.487 113.353C309.56 114.241 311.633 114.686 313.705 114.686C316.785 114.686 319.243 113.916 321.079 112.376C322.974 110.836 324.425 108.911 325.432 106.602C326.438 104.292 327.119 101.775 327.475 99.0506C327.889 96.3856 328.185 93.8686 328.363 91.4997C328.481 89.0715 328.541 86.673 328.541 84.3041C328.6 81.9944 328.689 79.6551 328.807 77.2862C326.024 77.9968 323.418 78.6187 320.99 79.1517C318.621 79.6255 316.015 79.8624 313.172 79.8624C310.27 79.8624 307.487 79.5366 304.822 78.8852C302.216 78.2337 299.906 77.1973 297.893 75.776C295.938 74.3546 294.369 72.5187 293.185 70.2682C292 68.0177 291.408 65.2935 291.408 62.0954C291.408 61.2071 291.556 60.0226 291.852 58.542C292.207 57.0022 292.592 55.4328 293.007 53.8338C293.481 52.2348 293.954 50.695 294.428 49.2144C294.902 47.7338 295.257 46.6086 295.494 45.8387L282.791 31.8028L313.261 42.2853C312.906 43.2921 312.402 44.7431 311.751 46.6382C311.159 48.5333 310.537 50.5173 309.885 52.5901C309.234 54.6037 308.671 56.5581 308.198 58.4532C307.724 60.2891 307.487 61.6512 307.487 62.5396C307.487 64.0202 307.842 65.2935 308.553 66.3595C309.264 67.4255 310.152 68.3139 311.218 69.0245C312.343 69.7352 313.557 70.2682 314.86 70.6236C316.222 70.9197 317.555 71.0677 318.858 71.0677C320.398 71.0677 322.115 70.9197 324.01 70.6236C325.965 70.3274 327.682 69.8537 329.163 69.2022L329.34 47.0824L312.462 36.1557L345.064 39.6203Z" fill="#034001"/>
<path d="M413.644 75.6871L375.09 75.9536L391.702 69.5575V53.5673C391.702 50.4285 390.903 47.9411 389.304 46.1052C387.764 44.21 385.395 43.2625 382.197 43.2625C380.598 43.2625 378.88 43.529 377.044 44.062C375.268 44.595 373.935 45.6018 373.047 47.0824L371.093 64.3163C371.685 64.7901 372.603 65.3823 373.846 66.093C375.149 66.8037 376.482 67.5143 377.844 68.225C379.384 69.0541 381.042 69.9129 382.819 70.8012L346.308 70.9789L361.232 64.8493L358.567 43.4401C356.849 42.9664 354.865 42.4334 352.615 41.8411C350.364 41.1897 348.203 40.5382 346.13 39.8868C343.761 39.1761 341.303 38.4358 338.757 37.6659L374.024 31.8028L373.58 37.2217C375.653 36.3926 377.874 35.5635 380.243 34.7344C382.611 33.9052 384.921 33.4907 387.172 33.4907C392.561 33.4907 396.736 34.9416 399.697 37.8436C402.658 40.7455 404.139 44.9207 404.139 50.3693C404.139 51.7314 404.05 53.2712 403.873 54.9887C403.754 56.6469 403.576 58.3348 403.34 60.0522C403.103 61.7697 402.836 63.4872 402.54 65.2046C402.303 66.8629 402.066 68.4027 401.829 69.824L413.644 75.6871Z" fill="#034001"/>
<path d="M447.135 24.163L446.335 32.5135C443.434 32.2766 440.561 32.0693 437.719 31.8916C434.876 31.6548 432.003 31.3882 429.102 31.0921C428.628 36.7183 428.124 42.3149 427.591 47.8819C427.058 53.4489 426.525 59.0454 425.992 64.6716C425.992 64.9677 425.963 65.2639 425.903 65.56C425.844 65.8561 425.815 66.1522 425.815 66.4483C425.815 67.2775 425.903 68.1362 426.081 69.0245C426.259 69.8537 426.555 70.6236 426.97 71.3342C427.384 71.9857 427.917 72.5483 428.569 73.0221C429.279 73.4366 430.138 73.6439 431.145 73.6439C433.099 73.6439 434.817 73.1998 436.297 72.3114C437.778 71.3638 439.021 70.1794 440.028 68.758C441.035 67.3367 441.835 65.7673 442.427 64.0498C443.019 62.2731 443.404 60.526 443.582 58.8085C444.292 61.592 444.648 64.3459 444.648 67.0702C444.648 69.676 444.233 72.0449 443.404 74.1769C442.575 76.2497 441.42 78.0561 439.939 79.5959C438.459 81.0764 436.682 82.2313 434.609 83.0604C432.536 83.8895 430.256 84.3041 427.769 84.3041C425.163 84.3041 422.883 83.8599 420.929 82.9716C418.974 82.0832 417.346 80.8692 416.043 79.3294C414.799 77.7303 413.852 75.8648 413.2 73.7328C412.608 71.6007 412.312 69.3206 412.312 66.8925C412.312 66.4187 412.312 65.9745 412.312 65.56C412.312 65.1454 412.341 64.7012 412.401 64.2275C412.874 58.4828 413.319 52.827 413.733 47.26C414.207 41.6338 414.622 35.9484 414.977 30.2038C413.378 30.0853 411.779 29.9669 410.18 29.8484C408.64 29.6708 407.071 29.4931 405.472 29.3154L405.827 22.2975C407.071 22.2383 408.373 22.031 409.736 21.6757C411.098 21.3203 412.401 20.8465 413.644 20.2543C414.947 19.6621 416.132 18.9514 417.198 18.1223C418.323 17.2931 419.241 16.3456 419.952 15.2796C420.603 14.2135 421.195 13.0587 421.728 11.815C422.321 10.5713 422.824 9.26842 423.238 7.90628C423.712 6.54415 424.097 5.21163 424.393 3.90873C424.689 2.54659 424.897 1.24369 425.015 0L432.3 0.17767L429.99 22.3863L447.135 24.163Z" fill="#034001"/>
<path d="M513.85 87.8575L476.628 86.7915L489.243 79.9512V63.6945C489.243 60.0226 488.295 57.1799 486.4 55.1663C484.505 53.1527 481.721 52.1459 478.049 52.1459C476.51 52.1459 474.763 52.3236 472.808 52.679C470.913 52.9751 469.284 53.4785 467.922 54.1891C467.745 57.5649 467.567 60.9406 467.389 64.3163C467.271 67.6328 467.152 70.9789 467.034 74.3546L478.316 81.106L441.094 82.6162L455.397 74.7099L453.087 15.0131L431.234 9.23881L470.143 3.46455L468.278 46.1052C469.758 45.6314 471.268 45.3057 472.808 45.128C474.348 44.9503 475.888 44.8615 477.428 44.8615H477.783C480.33 44.8615 483.083 45.128 486.045 45.661C489.006 46.1348 491.73 46.9935 494.217 48.2372C496.764 49.4217 498.866 51.0799 500.525 53.212C502.183 55.2848 503.012 57.9202 503.012 61.1182C503.012 62.2435 502.894 63.6352 502.657 65.2935C502.479 66.9517 502.242 68.6692 501.946 70.4459C501.65 72.2226 501.324 73.94 500.969 75.5983C500.613 77.1973 500.317 78.5298 500.08 79.5959L513.85 87.8575Z" fill="#034001"/>
<path d="M558.8 65.3823C558.8 65.7969 558.771 66.2114 558.711 66.626C558.711 67.0406 558.711 67.4551 558.711 67.8697L522.556 68.5804C523.325 72.0745 525.073 74.6507 527.797 76.309C530.521 77.9672 533.601 78.7963 537.036 78.7963C538.694 78.7963 540.382 78.6779 542.099 78.441C543.817 78.2041 545.505 77.8192 547.163 77.2862C548.821 76.7532 550.39 76.0721 551.871 75.243C553.352 74.3546 554.684 73.3182 555.869 72.1337C555.217 74.6211 554.122 76.8124 552.582 78.7075C551.042 80.6026 549.206 82.1721 547.074 83.4157C545.001 84.6594 542.721 85.5774 540.234 86.1696C537.806 86.8211 535.377 87.1468 532.949 87.1468C529.633 87.1468 526.464 86.5546 523.444 85.3701C520.483 84.1856 517.877 82.557 515.626 80.4842C513.435 78.4114 511.688 75.924 510.385 73.0221C509.082 70.1202 508.431 66.9517 508.431 63.5168C508.431 59.9042 509.171 56.6173 510.652 53.6561C512.132 50.695 514.087 48.178 516.515 46.1052C518.943 43.9732 521.756 42.3445 524.954 41.2193C528.152 40.094 531.498 39.5314 534.992 39.5314C538.664 39.5314 541.951 40.2125 544.853 41.5746C547.814 42.9368 550.331 44.8023 552.404 47.1712C554.477 49.5401 556.046 52.294 557.112 55.4328C558.238 58.5124 558.8 61.8289 558.8 65.3823ZM545.208 60.8517C545.09 59.2527 544.764 57.7129 544.231 56.2323C543.698 54.7518 542.958 53.4489 542.01 52.3236C541.063 51.1984 539.908 50.31 538.546 49.6586C537.243 48.9479 535.703 48.5926 533.926 48.5926C532.15 48.5926 530.61 48.9183 529.307 49.5697C528.004 50.2212 526.909 51.1095 526.02 52.2348C525.132 53.3008 524.391 54.5741 523.799 56.0547C523.266 57.476 522.852 58.9566 522.556 60.4964L545.208 60.8517Z" fill="#034001"/>
<path d="M597.71 24.163L596.91 32.5135C594.008 32.2766 591.136 32.0693 588.293 31.8916C585.451 31.6548 582.578 31.3882 579.676 31.0921C579.203 36.7183 578.699 42.3149 578.166 47.8819C577.633 53.4489 577.1 59.0454 576.567 64.6716C576.567 64.9677 576.537 65.2639 576.478 65.56C576.419 65.8561 576.389 66.1522 576.389 66.4483C576.389 67.2775 576.478 68.1362 576.656 69.0245C576.834 69.8537 577.13 70.6236 577.544 71.3342C577.959 71.9857 578.492 72.5483 579.143 73.0221C579.854 73.4366 580.713 73.6439 581.719 73.6439C583.674 73.6439 585.391 73.1998 586.872 72.3114C588.352 71.3638 589.596 70.1794 590.603 68.758C591.61 67.3367 592.409 65.7673 593.002 64.0498C593.594 62.2731 593.979 60.526 594.156 58.8085C594.867 61.592 595.222 64.3459 595.222 67.0702C595.222 69.676 594.808 72.0449 593.979 74.1769C593.15 76.2497 591.995 78.0561 590.514 79.5959C589.034 81.0764 587.257 82.2313 585.184 83.0604C583.111 83.8895 580.831 84.3041 578.344 84.3041C575.738 84.3041 573.458 83.8599 571.504 82.9716C569.549 82.0832 567.921 80.8692 566.618 79.3294C565.374 77.7303 564.426 75.8648 563.775 73.7328C563.183 71.6007 562.887 69.3206 562.887 66.8925C562.887 66.4187 562.887 65.9745 562.887 65.56C562.887 65.1454 562.916 64.7012 562.975 64.2275C563.449 58.4828 563.893 52.827 564.308 47.26C564.782 41.6338 565.196 35.9484 565.552 30.2038C563.953 30.0853 562.354 29.9669 560.755 29.8484C559.215 29.6708 557.645 29.4931 556.046 29.3154L556.402 22.2975C557.645 22.2383 558.948 22.031 560.31 21.6757C561.673 21.3203 562.975 20.8465 564.219 20.2543C565.522 19.6621 566.706 18.9514 567.772 18.1223C568.898 17.2931 569.816 16.3456 570.526 15.2796C571.178 14.2135 571.77 13.0587 572.303 11.815C572.895 10.5713 573.399 9.26842 573.813 7.90628C574.287 6.54415 574.672 5.21163 574.968 3.90873C575.264 2.54659 575.471 1.24369 575.59 0L582.874 0.17767L580.565 22.3863L597.71 24.163Z" fill="#034001"/>
<path d="M623.738 18.7441C623.738 20.047 623.472 21.2907 622.939 22.4752C622.465 23.6004 621.784 24.6072 620.896 25.4955C620.066 26.3247 619.06 27.0057 617.875 27.5387C616.75 28.0125 615.536 28.2494 614.233 28.2494C612.93 28.2494 611.716 28.0125 610.591 27.5387C609.466 27.0057 608.459 26.3247 607.57 25.4955C606.741 24.6072 606.06 23.6004 605.527 22.4752C605.053 21.2907 604.817 20.047 604.817 18.7441C604.817 17.4412 605.053 16.2271 605.527 15.1019C606.06 13.9767 606.741 12.9995 607.57 12.1703C608.459 11.282 609.466 10.6009 610.591 10.1272C611.716 9.59414 612.93 9.32764 614.233 9.32764C615.536 9.32764 616.75 9.59414 617.875 10.1272C619.06 10.6009 620.066 11.282 620.896 12.1703C621.784 12.9995 622.465 13.9767 622.939 15.1019C623.472 16.2271 623.738 17.4412 623.738 18.7441ZM634.132 81.7279L594.334 81.0172L609.081 71.8672L607.837 42.3741L590.87 34.379H623.472L620.54 72.4891L634.132 81.7279Z" fill="#034001"/>
<path d="M681.303 63.4279C681.362 67.2182 680.829 70.5939 679.704 73.5551C678.638 76.5163 677.039 79.0036 674.907 81.0172C672.834 83.0308 670.288 84.541 667.267 85.5478C664.306 86.6138 660.99 87.1468 657.318 87.1468C653.705 87.1468 650.3 86.5546 647.102 85.3701C643.963 84.1856 641.209 82.4978 638.84 80.3065C636.53 78.1153 634.695 75.5095 633.332 72.4891C631.97 69.4687 631.289 66.093 631.289 62.3619C631.289 58.4532 632.059 54.8998 633.599 51.7018C635.139 48.5037 637.212 45.7795 639.817 43.529C642.423 41.2785 645.414 39.561 648.79 38.3766C652.225 37.1329 655.808 36.511 659.539 36.511C661.552 36.511 663.744 36.8368 666.112 37.4882C668.541 38.1397 670.791 39.0872 672.864 40.3309C674.996 41.5746 676.743 43.1144 678.105 44.9503C679.526 46.7863 680.237 48.9183 680.237 51.3464C680.237 53.5969 679.556 55.4032 678.194 56.7654C676.832 58.1275 675.026 58.8085 672.775 58.8085C670.525 58.8085 668.6 58.1867 667.001 56.943C665.402 55.6401 664.602 53.8338 664.602 51.5241C664.602 50.7542 664.661 49.9547 664.78 49.1256C664.958 48.2372 665.254 47.4673 665.668 46.8159C664.661 45.9867 663.566 45.3945 662.381 45.0392C661.197 44.6838 659.983 44.5062 658.739 44.5062C656.489 44.5062 654.564 45.0688 652.965 46.194C651.425 47.26 650.152 48.6222 649.145 50.2804C648.197 51.9387 647.516 53.8042 647.102 55.877C646.687 57.8906 646.48 59.8153 646.48 61.6513C646.48 63.961 646.835 66.093 647.546 68.0473C648.257 69.9425 649.293 71.6007 650.655 73.0221C652.017 74.3842 653.646 75.4799 655.541 76.309C657.436 77.0789 659.598 77.4638 662.026 77.4638C664.158 77.4638 666.172 77.0493 668.067 76.2201C669.962 75.391 671.709 74.325 673.308 73.0221C674.907 71.66 676.358 70.1498 677.661 68.4915C679.023 66.8333 680.237 65.1454 681.303 63.4279Z" fill="#034001"/>
<path d="M740.556 82.4386L712.395 83.5934L713.017 78.6187C711.122 78.8556 709.227 79.0036 707.332 79.0628C705.437 79.0628 703.541 79.0628 701.646 79.0628C699.929 79.0628 698.034 78.8556 695.961 78.441C693.888 78.0264 691.963 77.375 690.187 76.4866C688.41 75.5391 686.929 74.325 685.745 72.8444C684.56 71.3638 683.968 69.5575 683.968 67.4255C683.968 65.0566 684.531 63.043 685.656 61.3848C686.781 59.7265 688.203 58.394 689.92 57.3872C691.697 56.3804 693.651 55.6401 695.783 55.1663C697.915 54.6925 699.988 54.4556 702.002 54.4556C704.489 54.4556 706.917 54.5741 709.286 54.811C711.655 55.0479 714.053 55.2552 716.482 55.4328C716.6 54.6629 716.689 53.893 716.748 53.1231C716.807 52.294 716.837 51.4649 716.837 50.6358C716.837 49.0367 716.689 47.4673 716.393 45.9275C716.156 44.3877 715.682 43.0256 714.971 41.8411C714.32 40.5974 713.372 39.6203 712.129 38.9096C710.944 38.1989 709.404 37.8436 707.509 37.8436C705.733 37.8436 704.104 38.1397 702.623 38.7319C701.202 39.2649 699.929 40.2125 698.804 41.5746C699.633 42.2261 700.195 42.9664 700.491 43.7955C700.788 44.5654 700.936 45.4537 700.936 46.4605V46.9935C700.047 51.1392 697.441 53.212 693.118 53.212C691.164 53.212 689.565 52.5309 688.321 51.1688C687.077 49.7474 686.456 48.0892 686.456 46.194C686.456 43.5882 687.196 41.3377 688.676 39.4426C690.157 37.5475 691.963 35.978 694.095 34.7344C696.287 33.4907 698.626 32.5727 701.113 31.9805C703.66 31.3882 705.999 31.0921 708.131 31.0921C714.942 31.0921 720.242 32.6615 724.033 35.8004C727.882 38.9392 729.807 44.062 729.807 51.1688C729.807 51.9387 729.777 52.7086 729.718 53.4785C729.718 54.2484 729.688 55.0183 729.629 55.7882L727.497 76.2201C729.748 77.2269 731.939 78.2633 734.071 79.3294C736.203 80.3954 738.365 81.4318 740.556 82.4386ZM715.504 61.3848C713.965 61.2071 712.425 61.0294 710.885 60.8517C709.345 60.6148 707.805 60.4964 706.266 60.4964C705.259 60.4964 704.252 60.6148 703.245 60.8517C702.298 61.0294 701.409 61.3551 700.58 61.8289C699.81 62.3027 699.188 62.9542 698.715 63.7833C698.241 64.5532 698.004 65.5304 698.004 66.7148C698.004 67.6032 698.211 68.4027 698.626 69.1134C699.04 69.7648 699.574 70.3274 700.225 70.8012C700.936 71.275 701.676 71.6303 702.446 71.8672C703.275 72.1041 704.074 72.2226 704.844 72.2226C706.384 72.2226 707.924 72.1337 709.464 71.9561C711.063 71.7784 712.603 71.6007 714.083 71.4231L715.504 61.3848Z" fill="#034001"/>
</svg>
